<svg xmlns="http://www.w3.org/2000/svg" xmlns:xlink="http://www.w3.org/1999/xlink" version="1.1" x="0px" y="0px" viewBox="0 0 90 90" enable-background="new 0 0 90 90" xml:space="preserve"><g><path fill="#000000" d="M77.267,55.022c-0.229-6.355-2.479-11.107-6.012-15.041c-0.032-1.215,0.051-2.446-0.007-3.653   c-0.023-0.513-0.071-1.061-0.298-1.526c-0.405-0.836-3.211-1.156-1.647-2.704c0.247-0.244,0.092-0.49-0.224-0.481   c-0.691,0.021-0.987,0.046-1.652,0.16c-2.397,0.412-1.137-2.076-1.197-3.157c-0.012-0.199-0.178-0.239-0.353-0.238   c-2.688,0.02-5.333,1.015-8.019,0.663c-0.063-0.008-0.145,0.003-0.232,0.027c-2.031-1.817-4.872-0.941-7.231-0.11   c-0.28-0.336-0.823-0.581-1.152-0.424c-0.48,0.228-0.931,0.486-1.373,0.757c-0.029-0.325-0.107-0.59-0.354-1.283   c-0.147-0.414-0.845-0.866-1.279-0.661c-0.31,0.145-2.344,1.578-2.551,0.693c-0.143-0.606-0.233-1.178-0.451-1.762   c-0.169-0.451-0.819-0.816-1.28-0.661c-3.112,1.053-5.582,3.158-8.105,5.192c-0.009,0.007-0.008,0.017-0.016,0.024   c-8.108,1.385-15.397,6.164-18.706,13.916c-2.059,4.823-6.624,18.465,2.403,18.785c16.641,0.586,33.401,0.602,50.045,0.265   C74.039,63.672,77.525,62.248,77.267,55.022z M69.491,47.201c-3.036-2.501-0.385-6.428-2.705-9.495   c-0.394-0.521-0.819-1.011-1.258-1.49c1.505,1.127,2.896,2.333,4.152,3.646c0.003,0.048,0.011,0.095,0.014,0.143   c-0.006,0.6,0.002,1.2,0.076,1.792c0.011,0.085,0.056,0.141,0.117,0.18c0.349,3.152,0.907,6.279,1.104,9.454   c0.313,5.115-1.32,2.954-2.498,0.596C70.172,51.098,71.283,48.679,69.491,47.201z M60.702,29.877   c1.223-0.168,2.421-0.402,3.655-0.5c0.68-0.053-0.12,2.832-0.157,3.129c-0.016,0.126,0.088,0.205,0.2,0.225   c0.729,0.132,2.939,0.247,3.134-0.119c-0.437,0.822-0.078,1.785,0.521,2.385c0.443,0.444,1.086-0.022,1.456,0.741   c0.293,0.606,0.188,1.546,0.203,2.21c0.003,0.142,0,0.286-0.001,0.429c-2.594-2.487-5.725-4.653-9.17-6.73   c-0.611-0.518-1.219-1.039-1.812-1.57C59.385,30.044,60.038,29.968,60.702,29.877z M59.198,32.128   c2.587,2.315,6.852,4.641,7.356,8.441c0.267,2.007-0.607,3.741,0.166,5.727c0.515,1.315,4.084,2.353,1.087,4.218   c-0.179-0.437-0.315-0.816-0.387-1.071c-0.702-2.516-1.799-4.282-3.281-6.38c-3.13-4.426-8.277-8.03-13.789-10.243   c0.091-0.76,0.178-1.503,0.215-2.255C54.112,29.36,56.047,29.312,59.198,32.128z M42.13,27.18c0.197,0.993,0.377,2.048,1.336,2.537   c0.992,0.505,1.994-0.048,2.912-0.605c0.041,0.458,0.055,0.925,0.077,1.323c0.026,0.458,0.898,1.083,1.331,0.817   c0.429-0.263,0.843-0.53,1.264-0.787c-0.053,0.595-0.13,1.187-0.202,1.79c-3.149-1.107-6.367-1.76-9.358-1.829   c-0.871-0.02-1.74,0.012-2.605,0.068C38.521,29.203,40.209,28.001,42.13,27.18z M65.257,62.582c-0.01,0-0.019,0.001-0.028,0.001   c0.012-0.007,0.021-0.016,0.031-0.023C65.26,62.567,65.257,62.574,65.257,62.582z M68.437,62.435   c-0.513,0.034-1.027,0.058-1.542,0.082c-0.025-0.403-0.292-0.789-0.813-0.789c-0.188,0-0.331,0.062-0.455,0.144   c0.009-0.433-0.263-0.872-0.82-0.872c-0.945,0-1.072,1.258-0.39,1.609c-1.308,0.031-2.617,0.041-3.929,0.039   c0.133-0.491-0.122-1.104-0.782-1.104c-0.657,0-0.912,0.607-0.783,1.098c-1.715-0.014-3.429-0.038-5.139-0.058   c0.491-0.452,0.316-1.492-0.546-1.492c-0.854,0-1.035,1.022-0.562,1.48c-0.639-0.006-1.277-0.011-1.914-0.012   c-7.625-0.014-15.249-0.07-22.874-0.15c-8.343-0.091-15.864,1.459-13.54-10.881c2.693-14.306,15.389-20.017,28.626-19.71   c7.41,0.171,19.828,10.23,22.601,15.977c1.013,2.096,0.725,6.229,2.578,7.95c5.944,5.518,3.923-8.809,3.221-13.921   c2.08,2.683,3.598,5.827,4.28,9.712C76.692,57.447,74.896,62.003,68.437,62.435z"></path><path fill="#000000" d="M19.809,57.266c-1.1,0-1.1,1.704,0,1.704C20.909,58.97,20.909,57.266,19.809,57.266z"></path><path fill="#000000" d="M19.809,60.088c-1.1,0-1.1,1.704,0,1.704C20.909,61.792,20.909,60.088,19.809,60.088z"></path><path fill="#000000" d="M22.633,57.538c-1.1,0-1.1,1.703,0,1.703C23.733,59.241,23.733,57.538,22.633,57.538z"></path><path fill="#000000" d="M23.818,59.722c-1.1,0-1.1,1.704,0,1.704C24.918,61.426,24.918,59.722,23.818,59.722z"></path><path fill="#000000" d="M28.552,58.448c-1.1,0-1.1,1.704,0,1.704C29.652,60.152,29.652,58.448,28.552,58.448z"></path><path fill="#000000" d="M26.458,55.624c-1.1,0-1.1,1.704,0,1.704S27.558,55.624,26.458,55.624z"></path><path fill="#000000" d="M32.926,60.088c-1.1,0-1.1,1.704,0,1.704C34.026,61.792,34.026,60.088,32.926,60.088z"></path><path fill="#000000" d="M33.016,57.355c-1.1,0-1.1,1.704,0,1.704S34.116,57.355,33.016,57.355z"></path><path fill="#000000" d="M38.66,59.668c0.495-0.45,0.321-1.494-0.543-1.494c-1.033,0-1.083,1.483-0.178,1.668   c-0.496,0.45-0.321,1.494,0.544,1.494C39.515,61.336,39.565,59.853,38.66,59.668z"></path><path fill="#000000" d="M34.93,55.534c-1.1,0-1.1,1.704,0,1.704C36.03,57.238,36.03,55.534,34.93,55.534z"></path><path fill="#000000" d="M40.484,57.266c-1.1,0-1.1,1.704,0,1.704C41.584,58.97,41.584,57.266,40.484,57.266z"></path><path fill="#000000" d="M40.759,59.722c-1.1,0-1.1,1.704,0,1.704S41.858,59.722,40.759,59.722z"></path><path fill="#000000" d="M45.221,59.359c-1.1,0-1.1,1.704,0,1.704S46.32,59.359,45.221,59.359z"></path><path fill="#000000" d="M44.95,56.444c-1.1,0-1.1,1.704,0,1.704S46.05,56.444,44.95,56.444z"></path><path fill="#000000" d="M51.963,58.538c-1.1,0-1.1,1.704,0,1.704C53.062,60.242,53.062,58.538,51.963,58.538z"></path><path fill="#000000" d="M49.32,59.996c-1.099,0-1.099,1.704,0,1.704S50.419,59.996,49.32,59.996z"></path><path fill="#000000" d="M48.137,55.898c-1.1,0-1.1,1.704,0,1.704S49.236,55.898,48.137,55.898z"></path><path fill="#000000" d="M53.328,56.627c-1.1,0-1.1,1.704,0,1.704C54.427,58.331,54.427,56.627,53.328,56.627z"></path><path fill="#000000" d="M55.06,58.902c-1.1,0-1.1,1.704,0,1.704C56.158,60.606,56.158,58.902,55.06,58.902z"></path><path fill="#000000" d="M61.799,58.902c-1.099,0-1.099,1.704,0,1.704S62.897,58.902,61.799,58.902z"></path><path fill="#000000" d="M58.792,57.992c-1.099,0-1.099,1.704,0,1.704C59.892,59.696,59.892,57.992,58.792,57.992z"></path><path fill="#000000" d="M65.078,58.721c-1.099,0-1.099,1.704,0,1.704S66.177,58.721,65.078,58.721z"></path><path fill="#000000" d="M59.795,55.624c-1.099,0-1.099,1.704,0,1.704C60.895,57.328,60.895,55.624,59.795,55.624z"></path><path fill="#000000" d="M57.792,52.983c-1.1,0-1.1,1.704,0,1.704C58.891,54.688,58.891,52.983,57.792,52.983z"></path><path fill="#000000" d="M43.673,52.709c-1.1,0-1.1,1.704,0,1.704S44.773,52.709,43.673,52.709z"></path><path fill="#000000" d="M47.591,43.602c-1.1,0-1.1,1.704,0,1.704C48.689,45.306,48.689,43.602,47.591,43.602z"></path><path fill="#000000" d="M26.368,45.124c1.1,0,1.1-1.704,0-1.704C25.269,43.419,25.269,45.124,26.368,45.124z"></path><path fill="#000000" d="M33.747,51.135c1.1,0,1.1-1.704,0-1.704C32.647,49.431,32.647,51.135,33.747,51.135z"></path><path fill="#000000" d="M37.025,40.687c-1.1,0-1.1,1.704,0,1.704C38.125,42.391,38.125,40.687,37.025,40.687z"></path><path fill="#000000" d="M67.536,59.905c-1.099,0-1.099,1.704,0,1.704S68.635,59.905,67.536,59.905z"></path></g></svg>